<svg xmlns:osb="http://www.openswatchbook.org/uri/2009/osb" xmlns="http://www.w3.org/2000/svg" xmlns:xlink="http://www.w3.org/1999/xlink" width="364" height="186"><def><style><![CDATA[path{fill:#164450;}.a{fill:#37abc8;}]]></style></def><g><path d="M11.842 89.364c0 4.978 1.453 8.521 4.36 10.629 2.757 2.071 6.26 3.107 10.508 3.107h5.198v-10.738h-4.024c-2.907 0-4.36-1.29-4.36-3.87v-64.864h-11.682v65.736"/><path d="M84.872 79.084v-9.375c-.073-7.449-2.38-13.3-6.922-17.551-4.47-4.179-9.939-6.305-16.407-6.377-2.689 0-5.414.491-8.176 1.472-2.798.981-5.324 2.58-7.577 4.797-2.217 2.18-4.034 5.16-5.451 8.939-1.417 3.707-2.126 8.358-2.126 13.954 0 5.814.818 10.538 2.453 14.172 1.49 3.779 3.434 6.723 5.832 8.83 1.236 1.017 2.562 1.871 3.979 2.562 1.344.799 2.725 1.435 4.143 1.908 2.834.872 5.741 1.308 8.721 1.308 7.813.073 14.608-2.98 20.386-9.157l-8.231-7.031c-3.634 3.67-7.758 5.505-12.373 5.505-3.961 0-7.159-1.199-9.593-3.597-2.616-2.362-3.925-5.814-3.925-10.356h35.266m-35.266-9.375c.218-4.397 1.399-7.722 3.543-9.975 2.18-2.144 4.978-3.216 8.394-3.216 3.416 0 6.214 1.072 8.394 3.216 2.217 2.253 3.398 5.578 3.543 9.975h-23.874"/><path d="M108.91 46.489h9.375l20.767 56.579h-12.101l-13.245-39.627h-.218l-13.3 39.627h-12.046l20.767-56.579" class="a"/><path d="M188.872 79.084v-9.375c-.073-7.449-2.38-13.3-6.922-17.551-4.47-4.179-9.939-6.305-16.407-6.377-2.689 0-5.414.491-8.176 1.472-2.798.981-5.324 2.58-7.577 4.797-2.217 2.18-4.034 5.16-5.451 8.939-1.417 3.707-2.126 8.358-2.126 13.954 0 5.814.818 10.538 2.453 14.172 1.49 3.779 3.434 6.723 5.832 8.83 1.235 1.017 2.562 1.871 3.979 2.562 1.345.799 2.725 1.435 4.143 1.908 2.834.872 5.741 1.308 8.721 1.308 7.813.073 14.608-2.98 20.386-9.157l-8.231-7.031c-3.634 3.67-7.758 5.505-12.373 5.505-3.961 0-7.159-1.199-9.593-3.597-2.616-2.362-3.925-5.814-3.925-10.356h35.266m-35.266-9.375c.218-4.397 1.399-7.722 3.543-9.975 2.18-2.144 4.978-3.216 8.394-3.216 3.416 0 6.214 1.072 8.394 3.216 2.217 2.253 3.398 5.578 3.543 9.975h-23.874"/><path d="M200.81 89.332c0 4.978 1.417 8.521 4.252 10.629 2.689 2.071 6.105 3.107 10.247 3.107h5.069v-10.738h-3.925c-2.834 0-4.252-1.29-4.252-3.87v-64.864h-11.392v65.736"/><path d="M226.228 61.175c.073 6.396 2.162 11.229 6.268 14.499 3.779 3.343 8.013 5.051 12.7 5.124 6.032 0 10.92-2.235 14.662-6.704h.218v6.05h11.392v-56.579h-11.392v33.686c0 3.816-1.054 6.795-3.161 8.939-2.071 2.144-4.742 3.216-8.013 3.216-3.27 0-5.96-1.072-8.067-3.216-2.144-2.144-3.216-5.124-3.216-8.939v-33.686h-11.392v37.61" class="a"/><path d="M281.202 103.036h11.392v-28.943c2.071 2.035 4.342 3.634 6.813 4.797 2.289 1.272 4.887 1.908 7.795 1.908 3.525-.073 6.541-.781 9.048-2.126 2.544-1.308 4.597-3.052 6.159-5.233 1.562-1.853 2.634-4.233 3.216-7.14.545-2.907.818-7.704.818-14.39 0-6.868-.273-11.737-.818-14.608-.581-2.907-1.653-5.251-3.216-7.031-3.198-4.76-8.267-7.231-15.208-7.413-5.96.182-10.829 2.38-14.608 6.595v-5.887h-11.392v79.472m22.566-33.631c-2.544 0-4.56-.545-6.05-1.635-1.563-1.054-2.707-2.435-3.434-4.143-.69-1.708-1.145-3.616-1.363-5.723-.218-1.999-.327-3.997-.327-5.996 0-2.144.109-4.27.327-6.377.218-1.999.672-3.852 1.363-5.56.727-1.708 1.871-3.089 3.434-4.143 1.49-1.054 3.507-1.581 6.05-1.581 2.689 0 4.815.454 6.377 1.363 1.562.981 2.671 2.326 3.325 4.034.727 1.635 1.217 3.525 1.472 5.669.073 2.144.109 4.342.109 6.595 0 2.144-.036 4.233-.109 6.268-.255 2.071-.745 3.961-1.472 5.669-.654 1.635-1.762 2.98-3.325 4.034-1.563 1.017-3.688 1.526-6.377 1.526" class="a"/><path d="M107.648 157.108c0 4.978 1.453 8.521 4.36 10.629 2.757 2.071 6.26 3.107 10.508 3.107h5.198v-10.738h-4.024c-2.907 0-4.36-1.29-4.36-3.87v-64.864h-11.682v65.736" class="a"/><path d="M136.927 151.875c.073 6.396 2.162 11.229 6.268 14.499 3.779 3.343 8.013 5.051 12.7 5.124 6.032 0 10.92-2.235 14.662-6.704h.218v6.05h11.392v-56.579h-11.392v33.686c0 3.816-1.054 6.795-3.161 8.939-2.071 2.144-4.742 3.216-8.013 3.216-3.27 0-5.96-1.072-8.067-3.216-2.144-2.144-3.216-5.124-3.216-8.939v-33.686h-11.392v37.61"/><path d="M196.885 170.844h11.392v-33.686c0-3.961 1.072-6.977 3.216-9.048 2.108-2.108 4.797-3.161 8.067-3.161 3.27 0 5.941 1.054 8.013 3.161 2.108 2.071 3.161 5.087 3.161 9.048v33.686h11.392v-37.61c-.182-6.468-2.199-11.374-6.05-14.717-3.888-3.307-8.176-4.96-12.864-4.96-6.069 0-10.974 2.235-14.717 6.704h-.218v-5.996h-11.392v56.579"/><path d="M290.093 154.219c-2.871 3.852-6.704 5.814-11.501 5.887-9.666.182-14.572-5.651-14.717-17.497.145-11.919 5.051-17.806 14.717-17.66 4.797.145 8.63 2.126 11.501 5.941l8.394-7.468c-2.471-2.98-5.378-5.36-8.721-7.14-3.343-1.744-7.213-2.653-11.61-2.725-6.686-.073-12.555 2.162-17.606 6.704-5.233 4.615-7.922 12.064-8.067 22.348.145 10.175 2.834 17.533 8.067 22.075 5.051 4.542 10.92 6.813 17.606 6.813 4.397-.073 8.267-1.036 11.61-2.889 3.343-1.781 6.25-4.088 8.721-6.922l-8.394-7.468"/><path d="M306.336 170.844h11.392v-33.686c0-3.961 1.072-6.977 3.216-9.048 2.108-2.108 4.797-3.161 8.067-3.161 3.27 0 5.941 1.054 8.013 3.161 2.108 2.071 3.161 5.087 3.161 9.048v33.686h11.392v-37.61c-.182-6.468-2.199-11.374-6.05-14.717-3.888-3.307-8.176-4.96-12.864-4.96-6.069 0-10.974 2.235-14.717 6.704h-.218v-28.889h-11.392v79.472"/></g></svg>